<svg width="1200" height="860" viewBox="0 0 1200 860" fill="none" xmlns="http://www.w3.org/2000/svg">
  <defs>
    <linearGradient id="bg" x1="120" y1="90" x2="1030" y2="760" gradientUnits="userSpaceOnUse">
      <stop stop-color="#DFF3FF"/>
      <stop offset="1" stop-color="#F6FBFF"/>
    </linearGradient>
    <linearGradient id="panel" x1="760" y1="190" x2="930" y2="640" gradientUnits="userSpaceOnUse">
      <stop stop-color="#0D3B66"/>
      <stop offset="1" stop-color="#1D6FA5"/>
    </linearGradient>
    <linearGradient id="metal" x1="364" y1="232" x2="561" y2="482" gradientUnits="userSpaceOnUse">
      <stop stop-color="#F5F9FC"/>
      <stop offset="1" stop-color="#9EB5C8"/>
    </linearGradient>
    <linearGradient id="shirt" x1="734" y1="327" x2="852" y2="661" gradientUnits="userSpaceOnUse">
      <stop stop-color="#FFA861"/>
      <stop offset="1" stop-color="#E36F1E"/>
    </linearGradient>
  </defs>
  <rect width="1200" height="860" rx="46" fill="url(#bg)"/>
  <circle cx="936" cy="172" r="88" fill="#BEE7FF"/>
  <circle cx="193" cy="682" r="118" fill="#E8F5FF"/>
  <rect x="80" y="132" width="476" height="578" rx="36" fill="#FFFFFF"/>
  <rect x="112" y="182" width="413" height="26" rx="13" fill="#E3EEF8"/>
  <rect x="112" y="228" width="252" height="16" rx="8" fill="#1D6FA5" fill-opacity="0.28"/>
  <rect x="112" y="280" width="348" height="220" rx="28" fill="#F3F8FC"/>
  <path d="M306 309C319 287 350 274 381 279C420 285 453 321 448 363C442 414 401 455 357 460C311 465 269 431 261 384C256 357 272 329 306 309Z" fill="url(#metal)"/>
  <path d="M309 306L388 402" stroke="#5B7285" stroke-width="36" stroke-linecap="round"/>
  <path d="M382 332L314 402" stroke="#4C6375" stroke-width="28" stroke-linecap="round"/>
  <circle cx="385" cy="329" r="42" fill="#D5E0E9"/>
  <rect x="112" y="535" width="187" height="139" rx="24" fill="#F4FAFF"/>
  <rect x="319" y="535" width="206" height="139" rx="24" fill="#F4FAFF"/>
  <rect x="143" y="570" width="125" height="14" rx="7" fill="#89A7BE"/>
  <rect x="143" y="598" width="95" height="14" rx="7" fill="#D2E1ED"/>
  <rect x="351" y="570" width="140" height="14" rx="7" fill="#89A7BE"/>
  <rect x="351" y="598" width="111" height="14" rx="7" fill="#D2E1ED"/>
  <rect x="650" y="138" width="476" height="584" rx="40" fill="url(#panel)"/>
  <rect x="693" y="170" width="390" height="518" rx="30" fill="#F8FBFE"/>
  <path d="M864 597C864 652 819 696 764 696H755C700 696 655 652 655 597V550C655 495 700 450 755 450H764C819 450 864 495 864 550V597Z" fill="url(#shirt)"/>
  <path d="M748 434C780 434 806 407 806 373V327H722V373C722 407 748 434 780 434H748Z" fill="#D89E7A"/>
  <circle cx="764" cy="283" r="97" fill="#D9A381"/>
  <path d="M674 275C674 210 725 168 791 168C844 168 876 205 876 267V301H674V275Z" fill="#17344D"/>
  <path d="M696 486C724 466 744 460 780 460C814 460 844 470 862 492L892 614C870 640 835 656 785 664L696 486Z" fill="#F28C3D"/>
  <path d="M673 487L638 633C667 658 705 672 754 674L735 519L673 487Z" fill="#F39A56"/>
  <rect x="827" y="421" width="185" height="36" rx="18" fill="#0D3B66"/>
  <rect x="985" y="403" width="33" height="72" rx="16.5" fill="#9EB5C8"/>
  <path d="M1002 421V457" stroke="#EAF3F8" stroke-width="9" stroke-linecap="round"/>
  <rect x="845" y="334" width="167" height="60" rx="30" fill="#E7F4FF"/>
  <rect x="872" y="350" width="82" height="12" rx="6" fill="#1D6FA5" fill-opacity="0.48"/>
  <rect x="872" y="370" width="114" height="10" rx="5" fill="#B7D8EF"/>
  <rect x="883" y="571" width="143" height="85" rx="22" fill="#EFF7FD"/>
  <path d="M944 588C964 588 980 603 980 622C980 642 964 657 944 657C924 657 909 642 909 622C909 603 924 588 944 588Z" fill="#1D6FA5" fill-opacity="0.16"/>
  <path d="M942 602C953 602 962 611 962 622C962 633 953 642 942 642C931 642 922 633 922 622C922 611 931 602 942 602Z" fill="#1D6FA5"/>
</svg>
