<svg width="256" height="256" viewBox="0 0 256 256" fill="none" xmlns="http://www.w3.org/2000/svg">
  <rect width="256" height="256" rx="56" fill="#0D3B66"/>
  <rect x="48" y="64" width="112" height="28" rx="14" fill="#F4A261"/>
  <rect x="132" y="64" width="28" height="98" rx="14" fill="#F4A261"/>
  <rect x="132" y="134" width="68" height="28" rx="14" fill="#F4A261"/>
  <rect x="172" y="134" width="28" height="74" rx="14" fill="#F4A261"/>
  <path d="M107 120C123 140 136 155 136 174C136 196 118 214 96 214C74 214 56 196 56 174C56 155 69 140 85 120C90 113 102 113 107 120Z" fill="#EEF7FC"/>
  <path d="M96 144C104 154 112 163 112 174C112 183 105 190 96 190C87 190 80 183 80 174C80 163 88 154 96 144Z" fill="#2F7EA3"/>
</svg>
