<svg width="960" height="720" viewBox="0 0 960 720" fill="none" xmlns="http://www.w3.org/2000/svg">
  <rect width="960" height="720" rx="40" fill="#F4FBFF"/>
  <circle cx="783" cy="148" r="93" fill="#E0F0FF"/>
  <rect x="114" y="523" width="733" height="116" rx="30" fill="#E1EDF7"/>
  <rect x="200" y="203" width="562" height="252" rx="34" fill="#FFFFFF"/>
  <path d="M433 290C451 272 477 261 505 261C552 261 591 295 599 340L544 353C542 329 525 311 503 311C489 311 475 318 467 329L433 290Z" fill="#2A5C78"/>
  <path d="M421 312L500 400" stroke="#375F7B" stroke-width="28" stroke-linecap="round"/>
  <rect x="357" y="371" width="121" height="40" rx="20" transform="rotate(-31 357 371)" fill="#F28D42"/>
  <rect x="524" y="375" width="126" height="42" rx="21" transform="rotate(37 524 375)" fill="#F28D42"/>
  <circle cx="503" cy="344" r="28" fill="#18394F"/>
  <rect x="134" y="94" width="247" height="64" rx="22" fill="#FFFFFF"/>
  <rect x="162" y="114" width="138" height="12" rx="6" fill="#58758E"/>
  <rect x="162" y="135" width="182" height="10" rx="5" fill="#ADC5D8"/>
</svg>
