<svg width="960" height="720" viewBox="0 0 960 720" fill="none" xmlns="http://www.w3.org/2000/svg">
  <rect width="960" height="720" rx="40" fill="#FFF5EE"/>
  <circle cx="780" cy="137" r="96" fill="#FFE0CA"/>
  <rect x="103" y="526" width="752" height="112" rx="28" fill="#F6E3D5"/>
  <g transform="rotate(-14 454 327)">
    <rect x="201" y="282" width="486" height="78" rx="39" fill="#C87445"/>
    <ellipse cx="201" cy="321" rx="39" ry="39" fill="#9C562E"/>
    <ellipse cx="201" cy="321" rx="18" ry="18" fill="#F3C49E"/>
    <ellipse cx="687" cy="321" rx="39" ry="39" fill="#D38A5A"/>
    <ellipse cx="687" cy="321" rx="18" ry="18" fill="#F7D4B7"/>
  </g>
  <g transform="rotate(12 532 393)">
    <rect x="318" y="357" width="374" height="74" rx="37" fill="#D18457"/>
    <ellipse cx="318" cy="394" rx="37" ry="37" fill="#A85C35"/>
    <ellipse cx="318" cy="394" rx="16" ry="16" fill="#F5C8A3"/>
    <ellipse cx="692" cy="394" rx="37" ry="37" fill="#DD9A71"/>
    <ellipse cx="692" cy="394" rx="16" ry="16" fill="#F7D6BB"/>
  </g>
  <rect x="101" y="93" width="250" height="64" rx="22" fill="#FFFFFF"/>
  <rect x="129" y="113" width="136" height="12" rx="6" fill="#7E543D"/>
  <rect x="129" y="134" width="181" height="10" rx="5" fill="#C59A81"/>
</svg>
