<svg width="960" height="720" viewBox="0 0 960 720" fill="none" xmlns="http://www.w3.org/2000/svg">
  <rect width="960" height="720" rx="40" fill="#F1FAFF"/>
  <circle cx="176" cy="146" r="92" fill="#DBF0FF"/>
  <rect x="112" y="526" width="740" height="114" rx="30" fill="#D9EAF5"/>
  <rect x="176" y="453" width="612" height="34" rx="17" fill="#A5BCCB"/>
  <path d="M355 460V300C355 215 424 146 509 146H562C647 146 716 215 716 300V326H656V302C656 249 613 206 560 206H509C456 206 413 249 413 302V460H355Z" fill="#C7D8E4"/>
  <rect x="512" y="304" width="138" height="40" rx="20" fill="#B0C5D5"/>
  <path d="M533 244H631" stroke="#98B4C8" stroke-width="22" stroke-linecap="round"/>
  <path d="M449 462V382C449 357.147 469.147 337 494 337H526C550.853 337 571 357.147 571 382V462H449Z" fill="#D9E6EE"/>
  <rect x="129" y="93" width="245" height="64" rx="22" fill="#FFFFFF"/>
  <rect x="157" y="113" width="132" height="12" rx="6" fill="#5B778F"/>
  <rect x="157" y="134" width="178" height="10" rx="5" fill="#ABC4D6"/>
</svg>
