<svg width="960" height="720" viewBox="0 0 960 720" fill="none" xmlns="http://www.w3.org/2000/svg">
  <rect width="960" height="720" rx="40" fill="#F4FBFF"/>
  <circle cx="786" cy="149" r="96" fill="#E0F1FF"/>
  <rect x="111" y="524" width="739" height="115" rx="30" fill="#E3EEF8"/>
  <rect x="207" y="188" width="547" height="275" rx="36" fill="#FFFFFF"/>
  <rect x="253" y="221" width="186" height="210" rx="32" fill="#EAF3F9"/>
  <rect x="285" y="250" width="122" height="136" rx="24" fill="#F8FBFE"/>
  <circle cx="346" cy="416" r="12" fill="#7EA4BE"/>
  <path d="M529 282C529 249 556 222 589 222H612C645 222 672 249 672 282V309H529V282Z" fill="#A8C0D2"/>
  <path d="M603 309V430" stroke="#B98031" stroke-width="24" stroke-linecap="round"/>
  <path d="M540 430H666" stroke="#CA984A" stroke-width="36" stroke-linecap="round"/>
  <circle cx="540" cy="430" r="33" fill="#B87E2D"/>
  <circle cx="666" cy="430" r="33" fill="#B87E2D"/>
  <rect x="129" y="95" width="283" height="64" rx="22" fill="#FFFFFF"/>
  <rect x="157" y="115" width="170" height="12" rx="6" fill="#5D7890"/>
  <rect x="157" y="136" width="214" height="10" rx="5" fill="#ADC4D7"/>
</svg>
